<svg width="65" height="57" viewBox="0 0 65 57" fill="none" xmlns="http://www.w3.org/2000/svg">
<mask id="mask0_81_3276" style="mask-type:luminance" maskUnits="userSpaceOnUse" x="13" y="17" width="25" height="8">
<path d="M13.626 18.4943C16.0959 20.6539 18.9689 22.3624 22.1202 23.4983C24.2446 24.2629 26.4969 24.7684 28.8324 24.9668C29.8657 25.0564 30.8959 24.7684 31.7309 24.1509C31.9357 23.9974 32.1373 23.8438 32.3388 23.687C34.0153 22.372 35.5285 20.8587 36.8466 19.1854C37.0514 18.9294 37.2466 18.6671 37.4385 18.4047C37.6945 18.0528 37.3137 17.5856 36.9202 17.7712C36.7539 17.848 36.5875 17.9248 36.4211 17.9984C33.1258 19.4573 29.4786 20.2668 25.6427 20.2668C21.5347 20.2668 17.6412 19.3357 14.1635 17.6752C14.0867 17.64 14.0132 17.624 13.9428 17.624C13.5333 17.624 13.2581 18.1711 13.626 18.4911" fill="white"/>
</mask>
<g mask="url(#mask0_81_3276)">
<path d="M37.6944 17.5889H13.2549V25.0564H37.6944V17.5889Z" fill="url(#paint0_linear_81_3276)"/>
</g>
<mask id="mask1_81_3276" style="mask-type:luminance" maskUnits="userSpaceOnUse" x="4" y="0" width="28" height="15">
<path d="M10.6825 3.75403C9.39637 5.149 8.26061 6.67514 7.29442 8.31327C6.9233 8.94357 6.57457 9.59306 6.25784 10.2522C6.07228 10.6329 5.89952 11.0168 5.73316 11.404C5.36524 12.2678 5.04211 13.1509 4.76696 14.0563C4.6262 14.5171 5.19887 14.8562 5.5348 14.5139C6.0115 14.0307 6.50419 13.5668 7.01928 13.1221C7.44799 12.7509 7.88629 12.3926 8.33739 12.0471C8.64773 11.8135 8.96126 11.5831 9.28119 11.3592C10.369 10.6009 11.5175 9.92261 12.7204 9.33071C15.6382 7.89414 18.8695 6.9695 22.3056 6.68474C25.4313 6.42559 28.4771 6.71994 31.3468 7.48141C31.8075 7.60299 32.1243 7.02709 31.7755 6.70074C31.0781 6.04165 30.3423 5.41775 29.5744 4.83545C27.3317 3.13333 24.8202 1.77995 22.12 0.852105C20.9779 0.45857 19.7973 0.266602 18.6296 0.266602C15.6638 0.266602 12.7652 1.4952 10.6825 3.75403Z" fill="white"/>
</mask>
<g mask="url(#mask1_81_3276)">
<path d="M4.64586 -0.448024L4.24805 14.8467L32.1046 15.5713L32.5024 0.276597L4.64586 -0.448024Z" fill="url(#paint1_linear_81_3276)"/>
</g>
<path d="M14.0451 46.09C14.0227 46.0292 13.9651 45.9844 13.898 45.9844H12.6918C12.5862 45.9844 12.5095 46.0868 12.5446 46.1891L13.8948 50.3165C13.9268 50.4156 13.8532 50.5212 13.7476 50.5212H12.0967C12.004 50.5212 11.9368 50.4316 11.9688 50.3421L12.647 48.3616C12.7014 48.1888 12.7014 48.0032 12.647 47.8305L12.1607 46.3491C12.1383 46.2851 12.0807 46.2403 12.0136 46.2403H11.924C11.8568 46.2403 11.7992 46.2851 11.7768 46.3459L9.09579 53.8647C9.0606 53.9671 9.13419 54.0694 9.24296 54.0694H10.5867C10.6539 54.0694 10.7114 54.0278 10.7338 53.9639L11.3417 52.1849C11.3769 52.0826 11.4729 52.0154 11.5817 52.0154H14.3427C14.4098 52.0154 14.4674 52.0602 14.4898 52.121L15.0881 53.9639C15.1105 54.0278 15.1681 54.0694 15.2353 54.0694H16.579C16.6846 54.0694 16.7613 53.9639 16.7261 53.8647L14.0483 46.09H14.0451Z" fill="#845198"/>
<path d="M20.5203 48.3555C20.2292 48.3907 19.6693 48.4163 19.4837 48.5346C19.407 48.5826 19.3238 48.6466 19.2374 48.717C19.1414 48.797 18.9943 48.7298 18.9943 48.605V48.557C18.9943 48.4707 18.9271 48.4035 18.8407 48.4035H17.5738C17.4874 48.4035 17.417 48.4739 17.417 48.557V53.9162C17.417 54.0025 17.4874 54.0697 17.5738 54.0697H18.8407C18.9271 54.0697 18.9943 53.9993 18.9943 53.9162V50.7551C18.9943 50.5119 19.1574 50.304 19.391 50.2432C19.7589 50.1472 20.2932 50.0224 20.5459 50.0064C20.6291 50.0032 20.6931 49.936 20.6931 49.8528V48.5122C20.6931 48.4195 20.6131 48.3459 20.5203 48.3587" fill="#845198"/>
<path d="M23.8799 48.2688C23.5536 48.2688 22.309 48.3488 21.8835 48.3776C21.8003 48.384 21.7396 48.4512 21.7396 48.5312V49.5934C21.7396 49.6862 21.8163 49.7566 21.9091 49.7502C22.2706 49.7214 23.1281 49.6574 23.6559 49.6574C24.2766 49.6574 24.5518 49.8622 24.5518 50.1949V50.2429C24.5518 50.3325 24.4846 50.4061 24.395 50.4125L23.2592 50.5181C21.762 50.614 21.2725 51.3563 21.2725 52.2042V52.6713C21.2725 53.5448 21.9443 54.0695 22.8049 54.0695C22.8241 54.0695 23.1473 54.0631 23.1984 54.0503C23.6112 53.9607 24.0207 53.6055 24.0431 53.1832C24.0431 53.1672 24.0431 53.1512 24.0431 53.1384V52.7033C24.0431 52.6009 23.9439 52.5273 23.8447 52.5529L23.7071 52.5913C23.6144 52.6169 23.5248 52.6489 23.4352 52.6841C23.384 52.7033 23.352 52.7129 23.2464 52.7129C22.9585 52.7129 22.7697 52.5945 22.7697 52.2458V52.1018C22.7697 51.7786 23.0449 51.6475 23.32 51.6219L24.3534 51.5259C24.459 51.5163 24.5518 51.5995 24.5518 51.7083V53.9095C24.5518 53.9959 24.6221 54.0631 24.7053 54.0631H25.9722C26.0586 54.0631 26.129 53.9927 26.129 53.9095V50.1789C26.129 48.6336 25.1596 48.2656 23.8799 48.2656" fill="#845198"/>
<path d="M30.3873 48.2692C30.3873 48.2692 30.3617 48.2691 30.3297 48.2723C30.2369 48.2819 30.1473 48.3203 30.0737 48.3811C29.7762 48.6275 29.5299 49.149 29.5299 49.5393V49.8529C29.5299 49.9489 29.6194 50.0225 29.7122 50.0065L30.1505 49.9297C30.3617 49.9137 30.6944 49.9425 30.6944 50.624V52.1085C30.6944 52.6588 30.4193 52.934 29.8082 52.934C29.1971 52.934 28.922 52.6588 28.922 52.1085V45.732C28.922 45.6456 28.8516 45.5752 28.7684 45.5752H27.4983C27.4151 45.5752 27.3447 45.6456 27.3447 45.732V52.2621C27.3447 53.8042 28.6021 54.201 29.8082 54.201C31.0143 54.201 32.2717 53.8074 32.2717 52.2621V50.0833C32.2717 49.0306 31.6734 48.2659 30.3809 48.2659" fill="#845198"/>
<path d="M38.0718 52.7419C37.3199 52.7323 36.5585 52.6523 36.1906 52.6171C36.0978 52.6075 36.021 52.6779 36.021 52.7707V53.9385C36.021 54.0185 36.085 54.0888 36.165 54.092C36.5009 54.1144 37.2463 54.1752 38.0654 54.1976C38.1549 54.1976 38.2253 54.1304 38.2253 54.0409V52.8954C38.2253 52.8123 38.1581 52.7419 38.0718 52.7419Z" fill="#845198"/>
<path d="M39.7037 49.3697L38.3408 49.2002C37.7105 49.1266 37.5857 48.925 37.5665 48.6019C37.5633 48.3715 37.5537 47.882 37.6177 47.69C37.7233 47.3701 38.0848 47.3573 38.843 47.3573C39.4477 47.3573 40.4619 47.4533 40.8618 47.4948C40.9546 47.5044 41.0346 47.4341 41.0346 47.3413V46.1255C41.0346 46.0455 40.9738 45.9783 40.8938 45.9719C40.3787 45.9303 39.4445 45.8535 38.7407 45.8535C37.077 45.8535 35.9893 46.359 35.9893 47.7572V48.7074C35.9893 49.8785 36.6835 50.5279 37.7105 50.6591L39.0606 50.8255C39.7804 50.9215 39.8508 51.2798 39.8508 51.6766V51.8557C39.8508 52.3196 39.7964 52.6364 38.971 52.7196C38.891 52.726 38.8302 52.7964 38.8302 52.8732V54.0442C38.8302 54.1306 38.9006 54.2009 38.9902 54.1977C40.5707 54.1465 41.4281 53.4843 41.4281 52.1309V51.3278C41.4281 50.2272 40.7338 49.4977 39.7069 49.3665" fill="#845198"/>
<path d="M58.5857 52.8381C58.2849 52.8765 57.6707 52.9469 57.2995 52.9469C56.5349 52.9469 56.247 52.8733 56.247 51.9647V50.5761C56.247 49.677 56.6533 49.5235 57.2388 49.5235C57.6067 49.5235 58.1889 49.5874 58.4769 49.6226C58.5697 49.6322 58.6496 49.5619 58.6496 49.4691V48.5316C58.6496 48.4516 58.5889 48.3844 58.5089 48.378C58.1666 48.346 57.3123 48.2725 56.9988 48.2725C55.2168 48.2725 54.6665 49.1587 54.6665 50.3297V52.2206C54.6665 53.7628 55.7671 54.2075 57.0468 54.2075C57.7698 54.2075 58.3745 54.1179 58.6273 54.0731C58.704 54.0603 58.7552 53.9963 58.7552 53.9195V52.9949C58.7552 52.9021 58.6752 52.8285 58.5825 52.8413" fill="#845198"/>
<path d="M45.0401 48.0225C43.8308 48.0225 42.5767 48.416 42.5767 49.9613V56.4947C42.5767 56.5778 42.647 56.6482 42.7302 56.6482H43.9972C44.0835 56.6482 44.1539 56.5778 44.1539 56.4947V50.1181C44.1539 49.5678 44.4291 49.2927 45.0401 49.2927C45.6512 49.2927 45.9263 49.5678 45.9263 50.1181V51.6027C45.9263 52.2842 45.5936 52.313 45.3825 52.297L44.941 52.2202C44.845 52.2042 44.7586 52.2778 44.7586 52.3737V52.6873C44.7586 53.0776 45.0017 53.5959 45.3025 53.8455C45.3729 53.9063 45.4624 53.9447 45.5584 53.9543C45.5904 53.9575 45.6128 53.9575 45.6128 53.9575C46.9053 53.9575 47.5036 53.1928 47.5036 52.1402V49.9613C47.5036 48.4192 46.2463 48.0225 45.0401 48.0225Z" fill="#845198"/>
<path d="M51.2212 48.2688C50.8981 48.2688 49.6503 48.3488 49.2248 48.3776C49.1417 48.384 49.0809 48.4512 49.0809 48.5312V49.5934C49.0809 49.6862 49.1577 49.7566 49.2504 49.7502C49.612 49.7214 50.4694 49.6574 50.9973 49.6574C51.6179 49.6574 51.8931 49.8622 51.8931 50.1949V50.2429C51.8931 50.3325 51.8259 50.4061 51.7363 50.4125L50.6005 50.5181C49.1033 50.614 48.6138 51.3563 48.6138 52.2042V52.6713C48.6138 53.5448 49.2856 54.0695 50.1462 54.0695C50.1654 54.0695 50.4886 54.0631 50.5398 54.0503C50.9525 53.9607 51.362 53.6055 51.3844 53.1832C51.3844 53.1672 51.3844 53.1512 51.3844 53.1384V52.7033C51.3844 52.6009 51.2852 52.5273 51.186 52.5529L51.0484 52.5913C50.9557 52.6169 50.8661 52.6489 50.7765 52.6841C50.7253 52.7033 50.6933 52.7129 50.5877 52.7129C50.2998 52.7129 50.111 52.5945 50.111 52.2458V52.1018C50.111 51.7786 50.3862 51.6475 50.6613 51.6219L51.6947 51.5259C51.8003 51.5163 51.8931 51.5995 51.8931 51.7083V53.9095C51.8931 53.9959 51.9634 54.0631 52.0498 54.0631H53.3168C53.3999 54.0631 53.4703 53.9927 53.4703 53.9095V50.1789C53.4703 48.6336 52.5009 48.2656 51.2212 48.2656" fill="#845198"/>
<path d="M61.9581 54.1363C62.2844 54.1363 63.529 54.0563 63.9545 54.0275C64.0376 54.0211 64.0984 53.9539 64.0984 53.874V52.8117C64.0984 52.7221 64.0217 52.6486 63.9289 52.6582C63.5674 52.687 62.7099 52.7509 62.182 52.7509C61.5614 52.7509 61.2862 52.5462 61.2862 52.2134V52.1654C61.2862 52.0758 61.3534 52.0023 61.443 51.9959L62.5788 51.8903C64.076 51.7943 64.5655 51.052 64.5655 50.2042V49.737C64.5655 48.8636 63.8937 48.3389 63.0331 48.3389C63.0139 48.3389 62.6907 48.3453 62.6395 48.3581C62.2268 48.4476 61.8173 48.8028 61.7949 49.2251C61.7949 49.2411 61.7949 49.2571 61.7949 49.2699V49.705C61.7949 49.8074 61.8941 49.881 61.9933 49.8554L62.1309 49.817C62.2236 49.7914 62.3132 49.7594 62.4028 49.7242C62.454 49.705 62.486 49.6954 62.5916 49.6954C62.8795 49.6954 63.0683 49.8138 63.0683 50.1626V50.3065C63.0683 50.6297 62.7931 50.7609 62.518 50.7865L61.4846 50.8824C61.379 50.892 61.2862 50.8089 61.2862 50.7001V48.4988C61.2862 48.4125 61.2159 48.3453 61.1327 48.3453H59.8657C59.7794 48.3453 59.709 48.4157 59.709 48.4988V52.2294C59.709 53.7748 60.6784 54.1427 61.9581 54.1427" fill="#845198"/>
<path d="M12.6694 41.0833H12.2951C12.1671 41.0833 12.0423 41.0737 11.9175 41.0481C11.3961 40.9361 11.1337 40.6226 11.1337 40.1074C11.1337 39.8995 11.2105 39.6659 11.3673 39.4132C11.492 39.1892 11.9207 39.0676 12.647 39.0452C12.8293 39.042 13.0085 38.978 13.1525 38.8692C13.5588 38.5589 13.8307 38.1846 13.9683 37.743V37.6982H12.1063C11.8408 37.6982 11.5752 37.759 11.3289 37.871C10.3947 38.2933 9.92758 38.994 9.92758 39.9731V40.2066C9.92758 40.3762 9.94677 40.5394 9.98196 40.6993C10.0268 40.9009 9.86999 41.0897 9.66203 41.0897H9.18214C9.12775 41.0897 9.09575 41.1217 9.08936 41.1825V42.0655C9.08936 42.2959 9.27492 42.4847 9.50846 42.4847H14.0131L14.1059 42.4367C13.6932 41.5376 13.2165 41.0897 12.6662 41.0897" fill="#845198"/>
<path d="M21.7652 36.2736C21.9507 36.2736 22.1171 36.2032 22.2642 36.0656C22.4018 35.9408 22.4722 35.7777 22.4722 35.5793C22.4722 35.4001 22.4018 35.2465 22.2642 35.1154C22.1107 34.9842 21.9411 34.917 21.7652 34.917C21.5892 34.917 21.442 34.9618 21.3045 35.0514C21.2789 35.0706 21.2533 35.0898 21.2341 35.1186C21.1157 35.2625 21.0581 35.4161 21.0581 35.5793C21.0581 35.7808 21.1285 35.9408 21.2661 36.0656C21.3908 36.2032 21.5572 36.2736 21.7652 36.2736Z" fill="#845198"/>
<path d="M31.939 36.2736C32.1245 36.2736 32.2909 36.2032 32.4381 36.0656C32.5788 35.9408 32.6492 35.7777 32.6492 35.5793C32.6492 35.4001 32.5788 35.2465 32.4381 35.1154C32.2845 34.9842 32.1149 34.917 31.939 34.917C31.763 34.917 31.6158 34.9618 31.4783 35.0514C31.4527 35.0706 31.4271 35.0898 31.4079 35.1186C31.2895 35.2625 31.2319 35.4161 31.2319 35.5793C31.2319 35.7808 31.3023 35.9408 31.4399 36.0656C31.5647 36.2032 31.731 36.2736 31.939 36.2736Z" fill="#845198"/>
<path d="M39.4763 36.1144V42.0623C39.4763 42.2926 39.6619 42.4814 39.8923 42.4814H40.4489C40.6793 42.4814 40.868 42.2926 40.868 42.0623V34.6299L40.8201 34.5371C39.921 35.017 39.4731 35.5449 39.4731 36.1176" fill="#845198"/>
<path d="M50.3348 42.9192C50.1652 42.9192 50.0116 42.964 49.8741 43.0536C49.8485 43.0728 49.8229 43.092 49.8037 43.1176C49.6853 43.2616 49.6245 43.4151 49.6245 43.5783C49.6245 43.7799 49.6949 43.943 49.8325 44.0678C49.9572 44.2054 50.1236 44.2758 50.3316 44.2758C50.5171 44.2758 50.6835 44.2054 50.8307 44.0678C50.9682 43.943 51.0386 43.7799 51.0386 43.5783C51.0386 43.4023 50.9682 43.2456 50.8307 43.1144C50.6771 42.9832 50.5075 42.916 50.3316 42.916" fill="#845198"/>
<path d="M52.6928 38.3445V39.9698C52.6928 40.5649 52.3313 40.9329 51.6114 41.0768C51.589 41.08 51.5666 41.0832 51.5442 41.0832H48.4665C47.8714 41.0832 47.5035 40.7217 47.3595 40.0018C47.3563 39.9794 47.3531 39.957 47.3531 39.9314V36.8535L47.3083 36.7607C46.4093 37.2407 45.9614 37.7654 45.9614 38.3413V39.781C45.9614 39.9442 45.9742 40.149 46.003 40.3985C46.003 40.4209 46.0094 40.4433 46.0158 40.4625C46.4221 41.8063 47.3019 42.4782 48.6552 42.4782H51.3971C51.5602 42.4782 51.765 42.4622 52.0145 42.4334C52.0369 42.4334 52.0593 42.427 52.0785 42.4206C53.419 42.0143 54.0941 41.1344 54.0941 39.781V36.8535L54.0461 36.7607C53.1471 37.2407 52.6992 37.7654 52.6992 38.3413" fill="#845198"/>
<path d="M57.204 43.1787C57.3032 43.0187 57.3863 42.8556 57.4535 42.6828C57.4599 42.6636 57.4695 42.6476 57.4791 42.6316C57.6935 42.0397 57.7511 41.3262 57.7639 40.8495C57.7639 40.8303 57.7639 40.8111 57.7639 40.7919C57.7639 40.472 57.7607 36.8438 57.7607 36.8438L57.7127 36.751C56.8137 37.2309 56.3658 37.7588 56.3658 38.3315V41.3166C56.3658 41.8381 56.1898 42.3085 55.8347 42.7244C55.8155 42.7468 55.7963 42.7628 55.7739 42.7788C54.9613 43.3611 54.5518 44.0074 54.5518 44.7177L54.6445 44.7625C54.9805 44.7625 55.4348 44.6281 56.0106 44.3561C56.0298 44.3465 56.0458 44.3369 56.065 44.3241C56.4969 44.0298 56.8393 43.7002 57.0984 43.3355C57.1272 43.2907 57.1624 43.2363 57.2072 43.1723" fill="#845198"/>
<path d="M64.399 41.0832H62.0763C61.8971 41.0832 61.7884 41.0672 61.75 41.0352C60.9757 40.7889 60.5886 40.3378 60.5886 39.6883C60.5886 38.8212 61.1069 38.3125 62.1435 38.1589C62.1627 38.1589 62.1787 38.1557 62.1947 38.1557H63.0041C63.5448 38.1557 64.0727 37.7206 64.5846 36.8535C64.5846 36.7991 64.5526 36.7703 64.4918 36.7607H62.3546C62.3098 36.7607 62.2651 36.7607 62.2139 36.7639C61.6572 36.7927 61.1133 36.9591 60.6334 37.2407C59.6736 37.8006 59.1937 38.5844 59.1937 39.5955C59.1937 39.9442 59.2641 40.293 59.4017 40.6417C59.4849 40.8529 59.3249 41.0832 59.0977 41.0832H58.637C58.4899 41.0832 58.3651 41.1952 58.3523 41.3392C58.3267 41.6143 58.2819 41.9023 58.2339 42.1487C58.2019 42.3182 58.3299 42.475 58.5027 42.475H64.0727C64.303 42.475 64.4886 42.2894 64.4886 42.0559V41.1728C64.4886 41.1184 64.4566 41.0864 64.3958 41.08" fill="#845198"/>
<path d="M34.2902 40.699C34.2902 40.699 34.2965 40.667 34.3029 40.651C34.4373 40.2671 34.5045 39.9312 34.5045 39.6464C34.5045 39.4832 34.4757 39.2465 34.4181 38.9361C34.4149 38.9137 34.4085 38.8913 34.3989 38.8689C33.871 37.4644 32.9752 36.7637 31.7147 36.7637C31.5195 36.7637 31.2956 36.7925 31.0428 36.8501C31.0237 36.8533 31.0077 36.8597 30.9917 36.8629C29.584 37.378 28.8801 38.2866 28.8801 39.5952C28.8801 40.0687 29.0049 40.5486 29.2512 41.035V41.083H28.0675C28.0675 41.083 28.0355 41.083 27.9907 41.083C27.7732 41.083 27.5716 41.2077 27.482 41.4093C27.3636 41.6781 27.2293 41.9404 27.1141 42.1452C27.0341 42.2956 27.1397 42.4779 27.3125 42.4779H31.9547C32.9496 42.4779 33.8454 41.8636 34.2006 40.9326C34.2326 40.8494 34.2614 40.7726 34.287 40.699M31.7147 41.0382H31.6699C31.382 41.0382 30.9341 40.843 30.7165 40.5774C30.1822 39.9248 30.2302 38.9425 30.8893 38.4114C31.0365 38.293 31.3756 38.2034 31.5323 38.2034H31.7179C32.3002 38.2034 32.7033 38.4466 32.9304 38.9297C33.1192 39.336 33.1288 39.8096 32.9656 40.2255C32.7513 40.7662 32.3354 41.035 31.7179 41.035" fill="#845198"/>
<path d="M38.5008 34.4854C37.6018 34.9653 37.1538 35.4932 37.1538 36.0659V39.9692C37.1538 40.5643 36.7923 40.9355 36.0725 41.0763C36.0501 41.0795 36.0277 41.0827 36.0021 41.0827H35.4326C35.4326 41.0827 35.3718 41.0827 35.1159 41.0795C34.9239 41.0795 34.748 41.1914 34.668 41.3642C34.5656 41.5914 34.4536 41.8153 34.3545 41.9977C34.2393 42.2153 34.396 42.4744 34.6424 42.4744H35.8517C36.0149 42.4744 36.2196 42.4616 36.4692 42.4328C36.4916 42.4328 36.514 42.4264 36.5364 42.42C37.8769 42.0137 38.5487 41.1339 38.5487 39.7805V34.5781L38.504 34.4854H38.5008Z" fill="#845198"/>
<path d="M17.8618 42.2598C18.0282 41.9782 18.1658 41.6743 18.2745 41.4023C18.3353 41.2488 18.2202 41.0856 18.057 41.0856H17.5483C16.9564 41.0856 16.5853 40.7241 16.4413 40.0042C16.4381 39.9818 16.4349 39.9594 16.4349 39.937V34.5811L16.3869 34.4883C15.4879 34.9682 15.04 35.4961 15.04 36.0688V39.7866C15.04 39.9498 15.0528 40.1545 15.0816 40.4041C15.0848 40.4265 15.0912 40.4489 15.0944 40.4713C15.5007 41.8119 16.3742 42.4838 17.4747 42.4838C17.6315 42.4838 17.7786 42.4006 17.8586 42.2662" fill="#845198"/>
<path d="M26.8902 39.5694C26.8902 39.5694 26.8806 39.5438 26.8774 39.5311C26.2567 37.8417 25.1913 36.9971 23.678 36.9971H23.4477C22.5263 36.9971 21.7073 37.2722 21.0002 37.8193C20.7859 37.9857 20.4723 37.8385 20.4723 37.5666V37.2498C20.4723 37.1027 20.306 37.0195 20.1876 37.1059C19.7813 37.4066 19.0774 37.9857 19.0774 38.392C19.0774 38.392 19.0774 39.803 19.0742 40.4781C19.0742 40.8204 19.0103 41.1628 18.8855 41.4795C18.7927 41.7195 18.6743 41.9627 18.5655 42.1834C18.4952 42.321 18.5943 42.481 18.7479 42.481H25.7032C26.0295 42.481 26.3335 42.3114 26.5062 42.033C26.631 41.8347 26.7398 41.6203 26.8358 41.4123C26.9989 41.054 27.0565 40.6573 27.0053 40.2669C26.9733 40.0174 26.9317 39.7422 26.887 39.5726M25.2009 41.0892H20.917C20.6899 41.0892 20.5331 40.8652 20.6131 40.6509C20.8243 40.0558 21.093 39.5694 21.3841 39.1919C21.848 38.6352 22.5167 38.3472 23.5405 38.3472C23.8188 38.3472 24.1291 38.424 24.4715 38.5808C25.1177 38.9264 25.4729 39.6462 25.5304 40.7469C25.54 40.9324 25.3897 41.0892 25.2041 41.0892" fill="#845198"/>
<mask id="mask2_81_3276" style="mask-type:luminance" maskUnits="userSpaceOnUse" x="2" y="27" width="20" height="12">
<path d="M10.4875 28.4028C8.21915 30.0953 6.22278 32.143 4.59114 34.4658C3.79451 35.5984 3.08106 36.7982 2.46679 38.0556C2.25564 38.4843 2.81552 38.8715 3.13865 38.5195C4.79909 36.7118 6.92023 35.4416 9.06057 34.181C11.0793 32.994 14.8257 31.1895 15.0849 31.0519C17.1804 29.9673 19.4327 29.1515 21.7938 28.6523C14.9569 29.8233 10.5099 27.8301 10.5099 27.8301C10.689 27.9805 10.6794 28.2588 10.4907 28.3996" fill="white"/>
</mask>
<g mask="url(#mask2_81_3276)">
<path d="M21.7908 27.833H2.25586V38.8712H21.7908V27.833Z" fill="url(#paint2_linear_81_3276)"/>
</g>
<mask id="mask3_81_3276" style="mask-type:luminance" maskUnits="userSpaceOnUse" x="4" y="14" width="25" height="16">
<path d="M6.98729 14.9621C3.09693 17.8192 4.77977 20.4012 6.24505 23.0631C7.33601 25.05 9.62672 27.0849 10.5097 27.8303C10.5097 27.8303 14.96 29.8268 21.7937 28.6526C21.9537 28.6174 22.1168 28.5854 22.2768 28.5566C22.2768 28.5566 22.6223 28.4926 22.7919 28.4638C22.7951 28.4638 26.132 27.8047 28.7618 26.5857C29.0241 26.4642 29.0113 25.8019 28.4131 25.8659L26.5063 25.6771C26.1512 25.6419 25.7992 25.5907 25.4505 25.5267C23.9276 25.242 22.4719 24.9604 19.9573 23.911C15.3407 21.9785 11.3991 18.7886 8.54215 14.7893C8.43978 14.6421 8.25422 14.5781 8.03666 14.5781C7.71993 14.5781 7.32962 14.7189 6.99049 14.9685" fill="white"/>
</mask>
<g mask="url(#mask3_81_3276)">
<path d="M29.021 14.5752H3.09375V29.8271H29.021V14.5752Z" fill="url(#paint3_linear_81_3276)"/>
</g>
<mask id="mask4_81_3276" style="mask-type:luminance" maskUnits="userSpaceOnUse" x="0" y="36" width="8" height="19">
<path d="M6.9809 36.7374C4.6166 38.2795 2.62024 40.3368 1.15815 42.7524C0.940597 43.1107 0.79023 43.5075 0.713446 43.917C0.505491 45.0048 0.0959793 47.3148 0.0319931 48.6874C0.0127972 49.0905 0.00319931 49.4937 0.00319931 49.8936H0C0 50.156 0 50.4119 0.00959793 50.6711C0.0351924 51.7013 0.121574 52.7187 0.265543 53.717C0.32313 54.1233 0.911803 54.0945 0.930999 53.685C0.930999 53.6722 0.930999 53.6626 0.930999 53.6498C0.966192 52.9331 1.02378 52.226 1.11336 51.5285C1.12616 51.4358 1.13895 51.343 1.15175 51.2502C1.3725 49.6313 1.73723 48.0635 2.23312 46.5566C3.21851 43.5555 4.72218 40.7975 6.62897 38.3819C6.91051 38.0268 7.20165 37.678 7.49918 37.3357C7.74553 37.0509 7.50558 36.667 7.19845 36.667C7.12806 36.667 7.05128 36.6894 6.9777 36.7342" fill="white"/>
</mask>
<g mask="url(#mask4_81_3276)">
<path d="M7.74873 36.6699H0V54.1262H7.74873V36.6699Z" fill="url(#paint4_linear_81_3276)"/>
</g>
<path d="M4.79551 15.157C4.73472 14.9874 4.54276 14.901 4.3764 14.9618C4.20364 15.0258 4.11725 15.2146 4.18124 15.3842C4.24203 15.5537 4.43079 15.6433 4.60355 15.5793C4.77311 15.5185 4.85949 15.3266 4.79871 15.157" fill="#9C66AB"/>
<path d="M4.18157 16.0372C4.13998 15.9221 4.01201 15.8645 3.90003 15.9061C3.78486 15.9477 3.72727 16.0724 3.76886 16.1876C3.81045 16.3028 3.93843 16.3604 4.0504 16.3188C4.16558 16.2772 4.22317 16.1492 4.18157 16.0372Z" fill="#585391"/>
<path d="M3.69546 16.8275C3.67307 16.7668 3.60268 16.7348 3.5419 16.7572C3.48111 16.7796 3.44912 16.8499 3.47151 16.9107C3.49391 16.9715 3.56429 17.0035 3.62508 16.9811C3.68587 16.9587 3.72106 16.8883 3.69546 16.8275Z" fill="#161441"/>
<path d="M13.2069 17.2556C13.2069 17.438 13.0565 17.582 12.8742 17.5788C12.6918 17.5788 12.5479 17.4284 12.5479 17.2461C12.5511 17.0637 12.7014 16.9197 12.8838 16.9229C13.0661 16.9229 13.2101 17.0733 13.2069 17.2556Z" fill="#9C66AB"/>
<path d="M12.3368 16.6292C12.3368 16.7508 12.2344 16.8468 12.1161 16.8468C11.9945 16.8468 11.8953 16.7444 11.8985 16.6228C11.8985 16.5013 12.0009 16.4053 12.1193 16.4053C12.2408 16.4053 12.3368 16.5077 12.3368 16.626" fill="#585391"/>
<path d="M11.6169 16.0435C11.6169 16.1106 11.5625 16.1618 11.4953 16.1618C11.4281 16.1618 11.377 16.1042 11.377 16.0403C11.377 15.9731 11.4313 15.9219 11.4953 15.9219C11.5625 15.9219 11.6137 15.9795 11.6137 16.0435" fill="#161441"/>
<path d="M2.45369 39.0829C2.3865 38.9133 2.19774 38.8301 2.02818 38.8973C1.85862 38.9645 1.77543 39.1533 1.84262 39.3228C1.90981 39.4924 2.10176 39.5756 2.27133 39.5084C2.44089 39.4412 2.52407 39.2524 2.45369 39.0829Z" fill="#9C66AB"/>
<path d="M1.86518 39.9789C1.82039 39.8669 1.69242 39.8093 1.58045 39.8541C1.46847 39.8989 1.41088 40.0269 1.45567 40.1389C1.50046 40.2508 1.62843 40.3084 1.74041 40.2636C1.85239 40.2188 1.90997 40.0909 1.86518 39.9789Z" fill="#585391"/>
<path d="M0.953643 54.5267C0.793677 54.4372 0.59532 54.4947 0.505739 54.6515C0.416159 54.8115 0.473746 55.0099 0.630512 55.0994C0.787279 55.189 0.988835 55.1346 1.07842 54.9747C1.168 54.8179 1.11361 54.6163 0.953643 54.5267Z" fill="#9C66AB"/>
<path d="M1.05917 55.5953C0.953589 55.5346 0.819218 55.5729 0.758431 55.6785C0.697644 55.7841 0.736036 55.9185 0.841613 55.9793C0.947191 56.0369 1.08156 56.0017 1.14235 55.8961C1.20314 55.7905 1.16474 55.6561 1.05917 55.5953Z" fill="#585391"/>
<path d="M1.20281 56.5105C1.14522 56.4785 1.07164 56.4977 1.03965 56.5553C1.00765 56.6129 1.03005 56.6865 1.08444 56.7185C1.14202 56.7505 1.21561 56.7313 1.2476 56.6737C1.27959 56.6161 1.2604 56.5425 1.20281 56.5105Z" fill="#161441"/>
<path d="M32.2235 7.86235C32.2395 7.67998 32.3994 7.5488 32.5818 7.5648C32.7609 7.58079 32.8953 7.74077 32.8793 7.91994C32.8633 8.10231 32.7034 8.23349 32.521 8.21749C32.3418 8.20149 32.2075 8.04152 32.2235 7.85915" fill="#161441"/>
<path d="M33.0422 8.5531C33.0518 8.43152 33.1606 8.34194 33.2822 8.35473C33.4038 8.36433 33.4933 8.47311 33.4805 8.59469C33.4709 8.71627 33.3622 8.80266 33.2406 8.79306C33.119 8.78346 33.0294 8.67468 33.0422 8.5531Z" fill="#585391"/>
<path d="M33.7144 9.19334C33.7208 9.12615 33.7783 9.07816 33.8455 9.08456C33.9127 9.09096 33.9607 9.14855 33.9543 9.21573C33.9479 9.27972 33.8903 9.33092 33.8263 9.32452C33.7591 9.31812 33.7112 9.26053 33.7176 9.19334" fill="#9C66AB"/>
<path d="M37.7967 17.1982C37.8095 17.3806 37.9663 17.5181 38.1454 17.5053C38.3278 17.4926 38.4622 17.3358 38.4526 17.1566C38.4398 16.9742 38.283 16.8367 38.1039 16.8495C37.9215 16.8623 37.7839 17.019 37.7967 17.1982Z" fill="#161441"/>
<path d="M38.6315 16.5298C38.6411 16.6514 38.7435 16.7441 38.8651 16.7345C38.9867 16.7249 39.0762 16.6226 39.0698 16.501C39.0634 16.3794 38.9579 16.2898 38.8363 16.2962C38.7147 16.3026 38.6219 16.4082 38.6315 16.5298Z" fill="#585391"/>
<path d="M39.3224 15.9084C39.3256 15.9756 39.3832 16.0236 39.4504 16.0204C39.5176 16.0172 39.5656 15.9596 39.5624 15.8924C39.5592 15.8252 39.5016 15.7772 39.4344 15.7804C39.3672 15.7836 39.3192 15.8412 39.3224 15.9084Z" fill="#9C66AB"/>
<path d="M29.4882 25.8244C29.4082 25.9875 29.4786 26.1827 29.6417 26.2627C29.8049 26.3427 30.0001 26.2723 30.08 26.1091C30.1568 25.9459 30.0896 25.7508 29.9265 25.6708C29.7633 25.5908 29.5649 25.6612 29.4882 25.8244Z" fill="#161441"/>
<path d="M30.5469 25.6513C30.4925 25.7601 30.5405 25.8912 30.6493 25.9456C30.7613 25.9968 30.8893 25.952 30.9436 25.8432C30.998 25.7313 30.95 25.6033 30.8413 25.5489C30.7325 25.4945 30.6013 25.5425 30.5501 25.6513" fill="#585391"/>
<path d="M31.4522 25.4434C31.4235 25.5042 31.449 25.5746 31.5098 25.6034C31.5706 25.6322 31.641 25.6066 31.6698 25.5458C31.6986 25.4882 31.673 25.4146 31.6122 25.3858C31.5514 25.357 31.481 25.3826 31.4522 25.4434Z" fill="#9C66AB"/>
<path d="M8.12311 36.5166C7.94715 36.4814 7.83198 36.3054 7.86717 36.1295C7.90236 35.9535 8.07832 35.8383 8.25429 35.8735C8.43345 35.9087 8.54542 36.0847 8.51023 36.2639C8.47504 36.4398 8.29908 36.555 8.12311 36.5198" fill="#161441"/>
<path d="M8.90369 35.7774C8.78532 35.7518 8.70854 35.6366 8.73093 35.5182C8.75653 35.3999 8.8717 35.3231 8.99007 35.3487C9.10845 35.3743 9.18523 35.4895 9.16284 35.6078C9.13724 35.7262 9.02207 35.803 8.90369 35.7806" fill="#585391"/>
<path d="M9.61378 35.1822C9.54659 35.1694 9.5082 35.1054 9.521 35.0414C9.5338 34.9774 9.59778 34.9358 9.66177 34.9486C9.72576 34.9614 9.76735 35.0254 9.75455 35.0894C9.74175 35.1566 9.67777 35.195 9.61378 35.1822Z" fill="#9C66AB"/>
<path d="M1.57853 40.664C1.55294 40.6032 1.48575 40.5712 1.42177 40.5968C1.36098 40.6192 1.32899 40.6896 1.35458 40.7503C1.37698 40.8111 1.44736 40.8431 1.50815 40.8175C1.56893 40.7919 1.60093 40.7247 1.57533 40.664" fill="#161441"/>
<defs>
<linearGradient id="paint0_linear_81_3276" x1="14.5622" y1="21.7507" x2="38.6204" y2="21.7507" gradientUnits="userSpaceOnUse">
<stop stop-color="#A377AA"/>
<stop offset="0.25" stop-color="#9B65AA"/>
<stop offset="0.48" stop-color="#7859A5"/>
<stop offset="0.75" stop-color="#6A4E9D"/>
<stop offset="1" stop-color="#0E0B36"/>
</linearGradient>
<linearGradient id="paint1_linear_81_3276" x1="4.59875" y1="7.06745" x2="31.5481" y2="7.7684" gradientUnits="userSpaceOnUse">
<stop stop-color="#A377AA"/>
<stop offset="0.25" stop-color="#9B65AA"/>
<stop offset="0.48" stop-color="#7859A5"/>
<stop offset="0.75" stop-color="#6A4E9D"/>
<stop offset="1" stop-color="#0E0B36"/>
</linearGradient>
<linearGradient id="paint2_linear_81_3276" x1="3.27126" y1="33.7086" x2="22.6329" y2="33.7086" gradientUnits="userSpaceOnUse">
<stop stop-color="#A377AA"/>
<stop offset="0.25" stop-color="#9B65AA"/>
<stop offset="0.48" stop-color="#7859A5"/>
<stop offset="0.75" stop-color="#6A4E9D"/>
<stop offset="1" stop-color="#0E0B36"/>
</linearGradient>
<linearGradient id="paint3_linear_81_3276" x1="5.19253" y1="22.3976" x2="29.5091" y2="22.3976" gradientUnits="userSpaceOnUse">
<stop stop-color="#A377AA"/>
<stop offset="0.25" stop-color="#9B65AA"/>
<stop offset="0.48" stop-color="#7859A5"/>
<stop offset="0.75" stop-color="#6A4E9D"/>
<stop offset="1" stop-color="#0E0B36"/>
</linearGradient>
<linearGradient id="paint4_linear_81_3276" x1="0.10257" y1="45.4466" x2="7.6993" y2="45.4466" gradientUnits="userSpaceOnUse">
<stop stop-color="#A377AA"/>
<stop offset="0.25" stop-color="#9B65AA"/>
<stop offset="0.48" stop-color="#7859A5"/>
<stop offset="0.75" stop-color="#6A4E9D"/>
<stop offset="1" stop-color="#0E0B36"/>
</linearGradient>
</defs>
</svg>
