<svg width="160" height="78" viewBox="0 0 160 78" fill="none" xmlns="http://www.w3.org/2000/svg">
<path d="M48.4242 73.8769C47.5309 74.2902 46.9642 74.9702 46.7242 75.9169C46.7098 75.9814 46.721 76.0499 46.7558 76.1103C46.7905 76.1707 46.8467 76.2191 46.9142 76.2469C47.2076 76.3735 46.9909 76.4502 46.2642 76.4769C46.1555 76.48 46.054 76.5001 45.9698 76.5352C45.8856 76.5703 45.8217 76.6191 45.7842 76.6769L45.6342 76.9169C43.0542 76.5302 40.9642 75.3002 39.3642 73.2269C36.8909 70.0135 35.3076 66.5135 34.6142 62.7269C34.3609 61.3535 34.1176 60.1702 33.8842 59.1769C33.5642 57.7969 33.3742 56.6035 33.3142 55.5969C32.4409 40.3102 33.0676 25.0335 35.1942 9.76687C35.245 9.40349 35.1491 9.03414 34.9269 8.73726C34.7047 8.44039 34.3737 8.23936 34.0042 8.17688L27.6742 7.12688C26.6876 6.02688 26.6942 5.17354 27.6942 4.56688C27.7237 4.5481 27.7471 4.52167 27.7626 4.48976C27.7781 4.45785 27.7851 4.42137 27.7831 4.38331C27.7812 4.34524 27.7703 4.30669 27.7514 4.2708C27.7324 4.23492 27.706 4.20273 27.6742 4.17688C27.5342 4.07021 27.4509 3.91354 27.4242 3.70688C28.9842 3.73354 30.5409 3.77355 32.0942 3.82688C33.4876 3.87355 35.0276 4.03354 36.7142 4.30688C45.0609 5.66021 53.4642 6.28021 61.9242 6.16688C66.9442 6.10688 70.9276 4.15688 73.8742 0.316878C73.9713 0.190934 74.0982 0.0955912 74.2377 0.0437302C74.3771 -0.00813074 74.5226 -0.0140123 74.6542 0.0268769C75.3676 0.246877 75.7242 0.690212 75.7242 1.35688C75.7309 1.77021 75.5442 2.22687 75.1642 2.72687C72.8776 5.76021 69.4842 7.76021 64.9842 8.72687C61.7109 9.43354 59.6076 9.79354 58.6742 9.80688C53.7609 9.88021 48.8076 9.91688 43.8142 9.91688C43.6686 9.91728 43.5281 9.96892 43.4181 10.0625C43.308 10.156 43.2357 10.2853 43.2142 10.4269C40.4142 27.4402 39.9442 44.4335 41.8042 61.4069C42.1176 64.2936 42.9242 67.0369 44.2242 69.6369C45.1642 71.5169 46.5642 72.9302 48.4242 73.8769Z" fill="#407EBA"/>
<path d="M45.6343 76.9169L45.7843 76.6768C45.8217 76.6191 45.8857 76.5702 45.9698 76.5352C46.054 76.5001 46.1555 76.48 46.2643 76.4769C46.9909 76.4502 47.2076 76.3735 46.9143 76.2469C46.8467 76.219 46.7906 76.1706 46.7558 76.1103C46.721 76.0499 46.7099 75.9814 46.7243 75.9169C46.9643 74.9702 47.5309 74.2902 48.4243 73.8769C50.0843 74.1302 51.4809 73.7902 52.6143 72.8569C57.6876 68.6835 61.3943 62.9735 63.7343 55.7269C64.7943 52.4602 67.0276 50.2002 70.4343 48.9469C71.8076 48.4402 72.9909 48.2869 73.9843 48.4869C75.3443 48.7602 76.3709 49.5602 77.0643 50.8869C77.1279 51.0112 77.1616 51.1487 77.1629 51.2882C77.1641 51.4277 77.1328 51.5654 77.0715 51.69C77.0102 51.8146 76.9205 51.9227 76.8098 52.0056C76.6991 52.0884 76.5705 52.1437 76.4343 52.1669C74.9276 52.4202 73.7743 53.0902 72.9743 54.1768C72.3943 54.9502 71.8243 56.0702 71.2643 57.5368C70.7976 58.7502 70.6076 60.0235 70.6943 61.3569C70.698 61.4249 70.7155 61.4915 70.7458 61.5524C70.7761 61.6133 70.8185 61.667 70.8702 61.7103C70.922 61.7536 70.982 61.7855 71.0464 61.8038C71.1108 61.8222 71.1782 61.8266 71.2443 61.8168C72.1243 61.6768 72.8343 61.1935 73.3743 60.3669C75.5543 57.0202 77.401 53.3169 78.9143 49.2569C79.5876 47.4502 80.8809 46.4902 82.7943 46.3769C85.4609 46.2169 86.6143 47.7235 86.2543 50.8969C85.5809 56.8235 85.5543 61.3302 86.1743 64.4169C86.4543 65.8035 87.2109 66.5602 88.4443 66.6869C89.2309 66.7735 90.1109 66.4935 91.0843 65.8468C94.3576 63.6935 96.7976 60.8769 98.4043 57.3969C99.2043 55.6702 99.6643 53.2735 99.7843 50.2068C100.071 42.8068 100.831 35.4535 102.064 28.1469C102.998 22.6002 104.768 17.3369 107.374 12.3569C108.694 9.85019 110.414 7.73685 112.534 6.01685C114.768 4.20352 117.024 3.18352 119.304 2.95685C122.298 2.66352 124.774 3.79686 126.734 6.35686C129.508 9.97019 130.341 14.1769 129.234 18.9769C128.221 23.3769 126.751 27.2202 124.824 30.5068C120.451 37.9668 114.898 44.7169 108.164 50.7569C107.931 50.9646 107.743 51.2274 107.612 51.5287C107.482 51.8299 107.411 52.163 107.404 52.5069L107.274 60.8869C107.268 61.0745 107.297 61.2525 107.355 61.3909C107.414 61.5293 107.498 61.6197 107.594 61.6469C107.801 61.7135 107.991 61.5502 108.164 61.1569C109.978 56.8902 111.584 53.4969 112.984 50.9769C113.584 49.8969 114.414 48.8835 115.474 47.9369C116.574 46.9502 117.714 46.4069 118.894 46.3069C120.688 46.1669 121.974 46.9135 122.754 48.5469C123.108 49.2935 123.364 50.6169 123.524 52.5169C123.778 55.4635 124.058 58.4068 124.364 61.3468C124.591 63.4868 125.481 64.4735 127.034 64.3069C127.921 64.2135 128.854 63.6969 129.834 62.7569C132.728 59.9969 134.424 56.8835 134.924 53.4169C135.544 49.1235 137.698 47.6402 141.384 48.9669C142.984 49.5402 143.631 50.6635 143.324 52.3369C142.544 56.6102 142.258 60.6369 142.464 64.4169C142.591 66.6569 143.724 67.4702 145.864 66.8569C147.451 66.3969 149.071 65.2602 150.724 63.4469C153.091 60.8469 155.134 58.0102 156.854 54.9369C157.174 54.3502 157.521 53.9668 157.894 53.7868C158.574 53.4535 159.038 53.6869 159.284 54.4869C159.404 54.8802 159.371 55.3235 159.184 55.8168C158.118 58.6435 156.624 61.1869 154.704 63.4469C152.824 65.6669 151.038 67.3735 149.344 68.5668C147.198 70.0868 144.808 70.9535 142.174 71.1669C139.908 71.3535 138.131 70.3935 136.844 68.2868C135.704 66.4268 135.061 64.6169 134.914 62.8569C134.821 61.7302 134.461 61.6369 133.834 62.5769C131.828 65.6035 129.108 67.4669 125.674 68.1669C124.021 68.5002 122.508 68.2135 121.134 67.3069C120.101 66.6269 119.188 65.5069 118.394 63.9469C116.821 60.8535 116.058 57.5302 116.104 53.9769C116.104 53.7943 116.067 53.6217 115.997 53.481C115.928 53.3404 115.829 53.238 115.714 53.1869C115.408 53.0535 115.154 53.2168 114.954 53.6768C112.721 58.9768 110.294 64.1802 107.674 69.2868C106.961 70.6802 106.258 71.5968 105.564 72.0368C104.531 72.6835 103.308 72.8902 101.894 72.6569C100.248 72.3902 99.4243 71.4235 99.4243 69.7569V63.1569C99.4243 61.5502 99.0109 61.4368 98.1843 62.8168C95.6043 67.1235 91.8509 69.9069 86.9243 71.1669C85.5776 71.5069 84.231 71.3435 82.8843 70.6768C81.8176 70.1435 80.9143 69.2368 80.1743 67.9568C78.6009 65.2302 77.7676 62.2435 77.6743 58.9969C77.6543 58.3302 77.4709 58.2802 77.1243 58.8468C76.0376 60.5735 74.7576 62.1302 73.2843 63.5169C70.3709 66.2702 67.3343 66.5435 64.1743 64.3369C64.0946 64.2821 64.0043 64.245 63.9092 64.228C63.8141 64.211 63.7164 64.2144 63.6228 64.2381C63.5291 64.2617 63.4415 64.305 63.3659 64.3652C63.2903 64.4253 63.2284 64.5009 63.1843 64.5869C60.8309 69.2069 57.6409 72.8802 53.6143 75.6069C51.3543 77.1335 48.6943 77.5702 45.6343 76.9169ZM121.724 7.87685C120.098 7.97685 118.684 8.84352 117.484 10.4769C114.178 14.9902 111.984 19.6835 110.904 24.5569C109.278 31.8969 108.308 39.2902 107.994 46.7369C107.974 47.1369 108.114 47.2002 108.414 46.9268C115.674 40.2935 121.334 32.5002 125.394 23.5469C127.041 19.9135 127.634 16.4535 127.174 13.1669C126.981 11.7735 126.358 10.5269 125.304 9.42686C124.238 8.30686 123.044 7.79019 121.724 7.87685Z" fill="#4467AD"/>
<path d="M27.4242 3.70689C27.4509 3.91355 27.5342 4.07022 27.6742 4.17689C27.706 4.20274 27.7324 4.23493 27.7513 4.27082C27.7703 4.3067 27.7811 4.34526 27.7831 4.38332C27.7851 4.42138 27.778 4.45786 27.7626 4.48977C27.7471 4.52168 27.7237 4.54811 27.6942 4.56689C26.6942 5.17356 26.6875 6.02689 27.6742 7.12689C23.0942 6.61355 18.5109 6.53689 13.9242 6.89689C9.1642 7.27022 5.3842 9.28689 2.5842 12.9469C2.15087 13.5269 1.7842 13.9102 1.4842 14.0969C0.584197 14.6702 0.0908675 14.3002 0.00420087 12.9869C-0.0213796 12.6698 0.0704295 12.3414 0.264199 12.0569C3.8042 6.69689 8.69087 3.90022 14.9242 3.66689C16.3242 3.61355 20.4909 3.62689 27.4242 3.70689Z" fill="#3F9BC6" fill-opacity="0.996"/>
<path d="M140.284 41.6969C142.46 41.6969 144.224 39.9329 144.224 37.7569C144.224 35.5809 142.46 33.8169 140.284 33.8169C138.108 33.8169 136.344 35.5809 136.344 37.7569C136.344 39.9329 138.108 41.6969 140.284 41.6969Z" fill="#4467AD"/>
</svg>
